<?xml version="1.0" standalone="no"?>
<!DOCTYPE svg PUBLIC "-//W3C//DTD SVG 1.1//EN" "http://www.w3.org/Graphics/SVG/1.1/DTD/svg11.dtd" >
<svg xmlns="http://www.w3.org/2000/svg">
<metadata>
Created by FontForge 20120731 at Thu Dec  3 17:36:59 2015
 By Ads
</metadata>
<defs>
<font id="iconfont" horiz-adv-x="1024" >
  <font-face 
    font-family="iconfont"
    font-weight="500"
    font-stretch="normal"
    units-per-em="1024"
    panose-1="2 0 6 3 0 0 0 0 0 0"
    ascent="896"
    descent="-128"
    x-height="792"
    bbox="0 -221 1030 822"
    underline-thickness="50"
    underline-position="-100"
    unicode-range="U+0078-E622"
  />
<missing-glyph horiz-adv-x="374" 
d="M34 0v682h272v-682h-272zM68 34h204v614h-204v-614z" />
    <glyph glyph-name=".notdef" horiz-adv-x="374" 
d="M34 0v682h272v-682h-272zM68 34h204v614h-204v-614z" />
    <glyph glyph-name=".null" horiz-adv-x="0" 
 />
    <glyph glyph-name="nonmarkingreturn" horiz-adv-x="341" 
 />
    <glyph glyph-name="x" unicode="x" horiz-adv-x="1001" 
d="M281 543q-27 -1 -53 -1h-83q-18 0 -36.5 -6t-32.5 -18.5t-23 -32t-9 -45.5v-76h912v41q0 16 -0.5 30t-0.5 18q0 13 -5 29t-17 29.5t-31.5 22.5t-49.5 9h-133v-97h-438v97zM955 310v-52q0 -23 0.5 -52t0.5 -58t-10.5 -47.5t-26 -30t-33 -16t-31.5 -4.5q-14 -1 -29.5 -0.5
t-29.5 0.5h-32l-45 128h-439l-44 -128h-29h-34q-20 0 -45 1q-25 0 -41 9.5t-25.5 23t-13.5 29.5t-4 30v167h911zM163 247q-12 0 -21 -8.5t-9 -21.5t9 -21.5t21 -8.5q13 0 22 8.5t9 21.5t-9 21.5t-22 8.5zM316 123q-8 -26 -14 -48q-5 -19 -10.5 -37t-7.5 -25t-3 -15t1 -14.5
t9.5 -10.5t21.5 -4h37h67h81h80h64h36q23 0 34 12t2 38q-5 13 -9.5 30.5t-9.5 34.5q-5 19 -11 39h-368zM336 498v228q0 11 2.5 23t10 21.5t20.5 15.5t34 6h188q31 0 51.5 -14.5t20.5 -52.5v-227h-327z" />
    <glyph glyph-name="uniE600" unicode="&#xe600;" 
d="M729 64h-434q-3 0 -6 -1t-5.5 -3t-4 -4.5t-2.5 -5.5t-1 -6q0 -4 1.5 -7.5t4 -6.5t6 -4.5t7.5 -1.5h434q8 0 13.5 6t5.5 14t-5.5 14t-13.5 6zM512 812q-139 0 -257 -68.5t-186.5 -186.5t-68.5 -257t68.5 -257t186.5 -186.5t257 -68.5t257 68.5t186.5 186.5t68.5 257
t-68.5 257t-186.5 186.5t-257 68.5zM512 -172q-128 0 -237 63t-172 172t-63 237q0 77 23.5 149t67.5 130t102 102t130 67.5t149 23.5q96 0 183.5 -37t151 -100.5t100.5 -151t37 -183.5t-37 -183.5t-100.5 -151t-151 -100.5t-183.5 -37zM493 101q8 -7 19 -4q5 -1 10 -0.5
t9 4.5l185 172q6 5 6.5 13.5t-5 14.5t-13.5 6t-14 -5l-158 -147v460q0 5 -3 10t-7.5 7.5t-9.5 2.5t-9.5 -2.5t-7.5 -7.5t-3 -10v-460l-158 147q-6 5 -14 5t-13.5 -6t-5 -14.5t6.5 -13.5z" />
    <glyph glyph-name="uniE601" unicode="&#xe601;" 
d="M891 557l-379 -383l-383 379l-63 -63l447 -443l442 446z" />
    <glyph glyph-name="uniE602" unicode="&#xe602;" 
d="M512 768q-65 0 -127.5 -17.5t-115 -48t-97 -75t-75 -97t-48 -115t-17.5 -127.5q0 -98 38 -186.5t102.5 -153t153 -102.5t186.5 -38q78 0 151.5 24.5t132.5 68.5t103 103t68.5 132.5t24.5 151.5q0 65 -17.5 127.5t-48 115t-75 97t-97 75t-115 48t-127.5 17.5zM512 -155
q-90 0 -172 35t-141.5 94.5t-94.5 141.5t-35 172t35 172t94.5 141.5t141.5 94.5t172 35t172 -35t141.5 -94.5t94.5 -141.5t35 -172q0 -72 -22.5 -139.5t-63.5 -122t-95.5 -95.5t-122 -63.5t-139.5 -22.5zM309 468l-7 -1q-9 -2 -15.5 -7t-10.5 -12.5t-4 -15.5v-288
q0 -15 11 -25.5t26 -10.5h406q10 0 18.5 5t13.5 13t5 18v288q0 7 -3 14t-8 11.5t-12 7.5t-14 3h-406zM692 432l-179 -144h-1h-1l-179 144h360zM309 403l178 -142q5 -5 11.5 -7t13.5 -2q5 0 9 1t8 3t8 5l178 142v-259h-406v259z" />
    <glyph glyph-name="uniE603" unicode="&#xe603;" 
d="M828 183q-6 1 -12.5 -1t-13.5 -5t-14 -7.5t-13.5 -9t-11 -8.5t-7.5 -6l-3 -3q39 -24 67.5 -53.5t41.5 -53t20.5 -44t8.5 -32.5v-11q32 15 48 43q10 15 12.5 29.5t-4 36.5t-26.5 49q-47 67 -93 76v0zM312 637q-6 -1 -12 -4.5t-11.5 -8.5t-11 -11.5t-10 -12.5t-8 -11
t-5.5 -9l-2 -3q32 -8 60 -21t46.5 -26.5t34 -27.5t24 -26.5t14.5 -22.5t8 -16l2 -5l22 36l12 29q3 10 3.5 18t-2 17t-9 18t-17.5 19.5t-27 22.5q-20 15 -37 25t-29.5 14.5t-24 5.5t-20.5 0zM512 797q-103 0 -197.5 -40t-163 -108.5t-108.5 -163t-40 -197.5t40 -197.5
t108.5 -163t163 -108.5t197.5 -40q186 0 330 123q36 7 30 36q-4 19 -20 51t-47.5 71.5t-67.5 60.5q-3 2 -8.5 4t-20 -1t-25.5 -17q-2 -1 -5.5 -1.5t-15 2t-25 8.5t-35.5 21.5t-46 39.5q-7 7 -28.5 27t-28.5 27t-24 24.5t-22.5 26t-17 24t-14.5 26.5t-6.5 25t-2 27.5
t5.5 27.5q2 5 1 14.5t-24.5 37.5t-70.5 55q-30 17 -52 25t-33.5 9t-19.5 -4.5t-10.5 -9.5t-4.5 -12l-1 -1q0 -1 -5 -14.5t-8 -24t-6 -27t-1.5 -34t8.5 -33.5q12 -33 33 -71t78.5 -111t135.5 -148q105 -101 176.5 -145.5t124.5 -45.5q-52 -28 -109 -43t-118 -15
q-96 0 -184 37.5t-151.5 101t-101 151.5t-37.5 184t37.5 184t101 151.5t151.5 101t184 37.5t184 -37.5t151.5 -101t101 -151.5t37.5 -184v-4v-5h35v4v5q0 69 -18 135t-51 122t-80 103t-103 80t-122 51t-135 18v0zM512 797z" />
    <glyph glyph-name="uniE604" unicode="&#xe604;" 
d="M764 433q-3 0 -10 -1.5t-14 -3.5q-2 27 -21.5 45t-46.5 18q-24 0 -43 -15q-5 13 -14.5 23t-22.5 15.5t-27 5.5q-27 0 -48 -15v71q20 11 35 28.5t23.5 39.5t8.5 47q0 54 -38.5 92.5t-92.5 38.5t-92.5 -38.5t-38.5 -92.5q0 -36 18 -66.5t48 -47.5l1 -307l-56 59
q-8 7 -17 12.5t-19 8t-20 2.5q-33 0 -56 -23q-10 -10 -15.5 -21.5t-7.5 -23.5t0 -24t7.5 -23.5t14.5 -20.5q57 -63 123 -130l12 -11q27 -28 41 -41.5t40 -33.5t47.5 -29.5t52.5 -17t65 -7.5q44 0 77 10t55.5 29.5t35.5 38t27 47.5q14 27 21.5 107t8.5 123t1 73
q0 24 -19 41.5t-44 17.5zM770 84q-13 -26 -24.5 -42.5t-30.5 -33.5t-47.5 -25t-66.5 -8q-31 0 -58.5 7t-47 15.5t-43 27t-37 31.5t-39.5 39l-12 12q-51 51 -123 129q-15 15 -15 36t15 36t35.5 15t35.5 -15l81 -85q6 -7 16 -3q4 1 6.5 5t2.5 8l-1 448q0 17 9 30.5t27 13.5
q21 0 27.5 -14.5t6.5 -29.5v-273q0 -6 4.5 -10t10.5 -4q13 1 15 14v39q0 22 15 33t33 11q16 0 27.5 -11.5t11.5 -27.5v-53q0 -6 4.5 -10.5t10.5 -4.5q3 0 6.5 2t5.5 5.5t2 7.5v24q0 5 1.5 10t4 9.5t6 8t8 6t9.5 4t10 1.5q10 0 19 -5.5t14.5 -14t5.5 -19.5v-63q0 -4 2 -7.5
t5 -5.5t7 -2q6 0 10.5 4.5t4.5 10.5v37q13 6 24 6q9 0 16.5 -4t12.5 -10.5t5 -14.5q0 -76 -6.5 -168.5t-21.5 -121.5z" />
    <glyph glyph-name="uniE605" unicode="&#xe605;" 
d="M256 428l256 -256l256 256h-512z" />
    <glyph glyph-name="uniE606" unicode="&#xe606;" 
d="M114 297q0 85 33 162q31 74 88.5 131.5t132.5 88.5q77 33 161 33q130 0 237 -75l-100 -16q-5 -1 -9 -4.5t-6 -8.5t-1 -11q1 -7 6.5 -11.5t13.5 -4.5h3l147 25q8 1 13 8t3 15l-23 135q-1 8 -8 13t-15 3.5t-13 -8.5t-3 -15l14 -86q-117 81 -259 81q-93 0 -177 -36
q-82 -34 -145 -97t-97 -145q-36 -84 -36 -177q0 -107 47 -202q3 -5 8 -8t10 -3q3 0 5 0.5t4 1.5q8 3 10.5 11t-1.5 16q-14 29 -23.5 59t-14.5 61.5t-5 63.5zM939 498q-4 7 -11.5 10t-15 -1t-10.5 -12t1 -15q11 -22 19 -44t13.5 -45.5t8 -47t2.5 -47.5q0 -85 -33 -162
q-15 -37 -37.5 -70t-50.5 -62q-58 -57 -132 -89q-77 -32 -162 -32q-130 0 -237 74l100 17q8 2 13 8.5t3.5 15t-8 13t-15.5 3.5l-146 -25q-9 -1 -13.5 -8t-3.5 -15l23 -135q1 -7 6.5 -12t13.5 -5h3q6 1 10 4.5t6 8.5t1 11l-15 85q57 -39 123.5 -60t135.5 -21q93 1 177 36
q41 17 77.5 41.5t67.5 56.5q63 63 98 144q17 43 26 87.5t9 90.5q0 107 -47 202z" />
    <glyph glyph-name="uniE607" unicode="&#xe607;" 
d="M410 -58q0 31 17 57q-30 10 -49.5 36.5t-19.5 59.5q0 31 18 57q-31 11 -50 37.5t-19 59.5q0 27 14 51h-167q-43 0 -73 30t-30 72.5t30 72.5t73 30h377l-119 69q-38 20 -49 61q-11 40 10 75t62 46.5t79 -7.5q99 -48 274 -136q72 -36 123 -75.5t80 -80.5q33 -47 33 -80
v-256q0 -66 -37 -120q-37 -52 -105 -88q-44 -24 -101 -40.5t-125 -25t-144 -8.5q-42 0 -72 30t-30 73zM858 -42q115 61 115 163v255q0 2 -0.5 4t-2 7.5t-4.5 11.5t-8 15t-12 18q-53 71 -181 135q-197 99 -273 136h-1v1q-19 9 -41 3t-33 -23q-5 -8 -6 -17.5t1 -17.5
q1 -4 2.5 -7t3 -5.5t3.5 -5t4.5 -5t5.5 -4.5l6 -4v0l139 -80q45 -24 37 -54t-59 -30h-400q-14 0 -26 -7t-19 -19t-7 -26q0 -21 15 -36t37 -15h332q11 0 18.5 -7.5t7.5 -18t-7.5 -18t-18.5 -7.5h-76q-14 0 -26 -7t-19 -18.5t-7 -25.5q0 -9 3 -16.5t7.5 -14t11 -11t14 -7
t16.5 -2.5h76q11 0 18.5 -7.5t7.5 -18.5t-7.5 -18.5t-18.5 -7.5h-25q-21 0 -36 -15t-15 -36t15 -36t36 -15h77q10 0 17.5 -7.5t7.5 -18t-7.5 -18t-17.5 -7.5h-26q-21 0 -36 -15t-15 -36q0 -14 7 -26t18.5 -19t25.5 -7q221 0 346 68z" />
    <glyph glyph-name="uniE608" unicode="&#xe608;" 
d="M262 357q-21 0 -35.5 14.5t-14.5 35.5q0 11 4 20.5t10.5 16t16 10.5t20 4t20 -4t16 -10.5t10.5 -16t4 -20.5q0 -21 -15 -35.5t-36 -14.5zM669 407q0 22 15 36.5t36 14.5q14 0 25.5 -6.5t18.5 -18.5t7 -26q0 -21 -15 -35.5t-36 -14.5t-36 14.5t-15 35.5zM491 1
q-100 0 -179 58t-110 150q22 7 49 13q13 -37 37 -68.5t54.5 -54t69 -35t79.5 -12.5q82 0 148 47.5t92 123.5q27 -7 49 -14q-31 -92 -110 -150t-179 -58v0zM1008 121l-32 -33l-63 61l33 34q13 13 31 13t31 -13q5 -5 8.5 -11.5t4.5 -13t0 -13t-4.5 -13t-8.5 -11.5v0zM957 69
l-201 -200l-85 -24l23 86l200 199zM957 69zM947 281q0 -3 1.5 -6t3.5 -5t4.5 -3.5t6.5 -1.5t7.5 2.5t5.5 6t2 7.5q0 3 -1.5 6t-3.5 5t-4.5 3t-5.5 1q-5 0 -8.5 -2t-5.5 -5.5t-2 -7.5zM585 -172q0 -3 1.5 -6t3.5 -5t4.5 -3.5t5.5 -1.5q7 0 11.5 4.5t4.5 11.5q0 4 -2 7.5
t-5.5 5.5t-8.5 2q-6 0 -10.5 -4.5t-4.5 -10.5zM489.5 776q-99.5 0 -190 -38.5t-156 -104t-104 -156t-38.5 -189.5q0 -80 24.5 -154.5t70 -134.5t105.5 -105.5t134.5 -70t153.5 -24.5q57 0 113 14v28l-3 2q-26 -7 -53.5 -10t-56.5 -3q-93 0 -177.5 36t-146 97.5t-98 146
t-36.5 178.5q0 53 12 104.5t35 96.5t54 85t71 71t85 54t96.5 35t104.5 12q94 0 178.5 -36.5t146 -98t97.5 -146t36 -177.5v-7h31v7q0 99 -38.5 189.5t-104 156t-156 104t-190 38.5z" />
    <glyph glyph-name="uniE609" unicode="&#xe609;" 
d="M492 71h40v59h-40v-59zM492 308h40v59h-40v-59zM492 190h40v59h-40v-59zM492 -47h40v59h-40v-59zM492 544h40v59h-40v-59zM492 426h40v59h-40v-59zM868 451q-18 26 -45.5 40t-64.5 14q-49 0 -82 -25t-49.5 -71t-16.5 -121q0 -119 45 -172q38 -44 103 -44q50 0 82 25
q33 26 49 70q17 46 17 121q0 63 -10.5 100t-27.5 63zM758 111q-47 0 -77.5 46.5t-30.5 130.5q0 57 14.5 98t39 60t54.5 19q47 0 77.5 -46.5t30.5 -130.5t-30.5 -130.5t-77.5 -46.5zM866 761h-708q-43 0 -79.5 -21.5t-57.5 -57.5t-21 -79v-650q0 -63 45 -100.5t113 -37.5h708
q68 0 113 37.5t45 100.5v650q0 32 -12.5 61t-33.5 50.5t-50 34t-62 12.5zM985 -47q0 -47 -33.5 -72.5t-85.5 -25.5h-334v59h-40v-59h-334q-52 0 -85.5 25.5t-33.5 72.5v650q0 32 16 59.5t43 43t60 15.5h334v-59h40v59h334q49 0 84 -34.5t35 -83.5v-650zM309 501
q-5 6 -13.5 6t-14.5 -6l-122 -123q-6 -5 -6 -13.5t6 -14.5q14 -10 27 0l90 90v-349q0 -8 5.5 -14t13.5 -6q6 0 10.5 3t7 7.5t2.5 9.5v394v1q0 9 -6 15z" />
    <glyph glyph-name="uniE60A" unicode="&#xe60a;" 
d="M514 -216q-51 0 -99.5 10t-94.5 29q-89 38 -158 107t-107 158q-39 93 -39 194t39 194q19 44 46 84t61 74q69 69 158 107q93 39 194 39q50 0 98.5 -10t95.5 -29q89 -38 158 -107t106 -158q13 -31 22 -63t13.5 -64.5t4.5 -66.5q0 -101 -40 -194q-37 -89 -106 -158
q-23 -23 -48.5 -42.5t-53 -35.5t-56.5 -29q-93 -39 -194 -39zM514 746q-62 0 -120.5 -15.5t-111.5 -46t-96 -74.5q-66 -66 -101 -150.5t-35 -177.5t35 -177.5t100.5 -150.5t150.5 -101t178 -35t177.5 35t150.5 101q44 43 74 96t46 111.5t16 120.5q0 93 -35 177.5t-101 150.5
t-150.5 101t-177.5 35zM638 395q0 -58 -62 -92q82 -40 82 -113q0 -58 -40.5 -96t-106.5 -38t-105.5 38t-39.5 93q0 75 84 116q-63 34 -63 93q0 44 36.5 78t89 34t89 -33t36.5 -80v0zM615 190q0 36 -30 63.5t-72 27.5t-73 -28.5t-31 -67t28.5 -64t74 -25.5t74.5 27t29 66v1z
M595 397q0 28 -22.5 49t-59 21t-59.5 -21q-8 -7 -13 -14.5t-8 -16.5t-3 -19t3 -19t8.5 -17.5t14.5 -15.5q25 -24 57.5 -24t57 23t24.5 54z" />
    <glyph glyph-name="uniE60B" unicode="&#xe60b;" 
d="M614 -58q0 31 -17 57q30 10 49.5 36.5t19.5 59.5q0 31 -18 57q31 11 50 37.5t19 59.5q0 27 -14 51h167q43 0 73 30t30 72.5t-30 72.5t-73 30h-377l119 69q38 20 49 61q11 40 -10 75t-62 46.5t-79 -7.5q-99 -48 -274 -136q-72 -36 -123 -75.5t-80 -80.5q-33 -47 -33 -80
v-256q0 -66 37 -120q37 -52 105 -88q33 -18 73.5 -32t87 -23t99.5 -14t110 -5q42 0 72 30t30 73zM166 -42q-115 61 -115 163v255q0 1 0.5 2.5t1 4.5t1.5 6t3 8t5 10.5t7 12t9 12.5q53 71 181 135q197 99 273 136h1v1q19 9 41 3t33 -23q5 -8 6 -17.5t-1 -17.5q-3 -10 -9 -18
t-16 -13v0l-139 -80q-45 -24 -37 -54t59 -30h400q14 0 26 -7t19 -19t7 -26q0 -21 -15 -36t-37 -15h-332q-11 0 -18.5 -7.5t-7.5 -18t7.5 -18t18.5 -7.5h76q14 0 26 -7t19 -18.5t7 -25.5q0 -21 -15 -36t-37 -15h-76q-3 0 -6 -1t-5.5 -2t-5 -3t-4 -4t-3 -4.5t-2 -5.5t-0.5 -6
q0 -11 7.5 -18.5t18.5 -7.5h25q21 0 36 -15t15 -36t-15 -36t-36 -15h-77q-10 0 -17.5 -7.5t-7.5 -18.5q0 -7 3.5 -12.5t9 -9t12.5 -3.5h26q21 0 36 -15t15 -36q0 -7 -2 -14t-5 -12.5t-8 -10t-10.5 -8t-12 -5.5t-13.5 -2q-221 0 -346 68z" />
    <glyph glyph-name="uniE60C" unicode="&#xe60c;" 
d="M544 684h-64v-352h-352v-64h352v-352h64v352h352v64h-352v352z" />
    <glyph glyph-name="uniE60D" unicode="&#xe60d;" 
d="M95 336h833v-72h-833v72z" />
    <glyph glyph-name="uniE60E" unicode="&#xe60e;" 
d="M985 105l-439 444q-12 11 -28 11q-17 0 -29 -11v-1h-1l-1 -1l-443 -439q-12 -12 -12 -28.5t11.5 -28.5t28 -12t28.5 12l417 413l412 -415q7 -8 17.5 -10.5t21 0t17.5 10.5q6 5 9 12.5t3 15.5t-3 15.5t-9 12.5z" />
    <glyph glyph-name="uniE60F" unicode="&#xe60f;" 
d="M512 768q-98 0 -186.5 -38t-153 -102.5t-102.5 -153.5t-38 -186q0 -78 24.5 -151.5t68.5 -132.5t103 -103t132.5 -68.5t151.5 -24.5q97 0 186 38t153.5 102.5t102.5 153.5t38 186q0 78 -24.5 151.5t-68.5 132.5t-103.5 103t-132.5 68.5t-151 24.5zM512 -165
q-92 0 -176 36t-144.5 96.5t-96.5 144.5t-36 176q0 74 23 143t65 124.5t97.5 97.5t124.5 65t143 23q92 0 176 -36t144.5 -96.5t96.5 -144.5t36 -176q0 -74 -23 -143t-65 -124.5t-97.5 -97.5t-124.5 -65t-143 -23zM254 32q0 -12 1 -25h35q-2 14 -2 25q0 45 18 86.5t48 71
t71 47t87 17.5q93 0 158.5 -65t65.5 -157q0 -11 -2 -25h35q0 7 0.5 13t0.5 12q0 92 -58.5 162.5t-147.5 88.5q40 11 71 37t49 64t18 80q0 78 -55.5 133t-134.5 55t-134.5 -55t-55.5 -133q0 -16 2.5 -31.5t7.5 -30t12.5 -28t16.5 -25t20 -22t23.5 -19t26.5 -15t29 -10.5
q-104 -22 -163 -110q-43 -64 -43 -141zM351 464q0 43 21.5 80t58.5 58t81 21q67 0 114 -46.5t47 -112.5q0 -44 -21.5 -80.5t-58.5 -58t-81 -21.5q-67 0 -114 47t-47 113z" />
    <glyph glyph-name="uniE610" unicode="&#xe610;" 
d="M733 -125q3 3 5.5 7.5t3.5 9t1 9t-1 9t-3.5 8.5t-5.5 8l-372 369l370 374q11 10 11 25t-11 25q-4 5 -9.5 7.5t-11 3t-11 0t-10.5 -3.5t-9 -7l-394 -397v-2h-1l-1 -1q-3 -3 -5.5 -7t-3.5 -8.5t-1 -9.5q0 -15 11 -25l397 -394q4 -4 8 -6.5t8.5 -3.5t9 -1t9 1.5t9 3.5t7.5 6
zM733 -125z" />
    <glyph glyph-name="uniE611" unicode="&#xe611;" 
d="M748 277l-422 -407l-50 41l390 389l-390 369l50 61l422 -410v-43z" />
    <glyph glyph-name="uniE612" unicode="&#xe612;" 
d="M543 414h1q22 0 37 16t15 38q0 17 -10 28q-11 13 -30 13q-23 0 -37.5 -16.5t-14.5 -34.5q0 -10 3 -18t8 -13.5t12 -9t16 -3.5zM596 152l-14 30l-3 -4q-8 -7 -18.5 -14.5t-18 -12.5t-9.5 -6v4q0 5 2 15l36 145q2 9 3 22.5t1 21.5q0 15 -4 23q-6 10 -17 9q-19 0 -55 -22
t-71 -54l-2 -2l12 -35l5 4q11 8 24.5 18t17.5 11q0 -2 -0.5 -6t-1.5 -10l-33 -140q-1 -7 -2.5 -16.5t-2 -17t-0.5 -12.5q0 -19 8 -28q3 -2 6.5 -4t6.5 -2.5t7 -0.5q18 0 54.5 22t67.5 57l3 2zM512 795q-83 0 -160.5 -25.5t-139.5 -72.5t-109 -109t-72.5 -139.5t-25.5 -160.5
q0 -103 40 -197t108 -162t162 -108t197 -40t197 40t162 108t108 162t40 197t-40 197t-108 162t-162 108t-197 40zM515.5 -155q-90.5 0 -172.5 35.5t-141 94.5t-94 141.5t-35 173t35 172.5t94 141.5t141 94.5t172.5 35t172.5 -35t141 -94.5t94 -141.5t35 -172.5t-35 -173
t-94 -141.5t-141 -94.5t-172.5 -35.5z" />
    <glyph glyph-name="uniE613" unicode="&#xe613;" 
d="M597 -144v1l-1 1q-10 9 -10 25v55v380q0 9 3 16t9 14q56 55 250 250q2 1 3 2.5t2.5 3t2.5 3.5t2.5 3.5t2 3.5t1.5 4l2 4q4 14 -1 28t-16.5 23t-26.5 10h-5h-606q-37 0 -48 -32q-8 -24 8 -45q4 -6 11 -12q150 -151 238 -239q12 -12 12 -29v-259q0 -21 -16 -30
q-15 -7 -29 1t-16 24v7v244q0 5 -3 8l-235 235q-11 11 -18.5 23t-11 26t-3.5 29q0 25 10.5 47.5t28.5 37.5t42 21q14 4 30 4h606q64 0 97 -55q5 -9 8.5 -19t5 -20.5t0.5 -21t-3.5 -20.5t-7 -20t-10.5 -18q-7 -9 -15 -16q-31 -31 -60 -60.5t-59.5 -59.5t-60.5 -60.5
t-60 -59.5q-1 -2 -2 -3t-1 -3v-3v-414q0 -24 -12 -35h-9h-10h-9h-10z" />
    <glyph glyph-name="uniE614" unicode="&#xe614;" 
d="M677 607v62q0 16 -8.5 30.5t-24 22.5t-33.5 8h-198q-28 0 -47 -18t-19 -43v-62h-265v-61h99v-615q0 -25 19.5 -43t46.5 -18h530q27 0 46.5 18t19.5 43v615h99v61h-265zM413 669h198v-62h-198v62zM777 -69h-530v615h530v-615zM347 454h66v-430h-66v430zM479 454h66v-430
h-66v430zM611 454h66v-430h-66v430zM611 454z" />
    <glyph glyph-name="uniE615" unicode="&#xe615;" 
d="M785 -99q0 -13 -7 -24.5t-18 -18t-24 -6.5h-448q-13 0 -24 6.5t-18 18t-7 24.5v798q0 20 14.5 34.5t34.5 14.5h448q20 0 34.5 -14.5t14.5 -34.5v-798zM714 599q0 20 -11.5 34t-29.5 14h-318q-11 0 -20.5 -4t-16.5 -10.5t-11 -15.5t-4 -18v-497q0 -19 14.5 -33.5
t33.5 -14.5h314q20 0 34.5 14.5t14.5 33.5v497zM546 -47q0 14 -10 23.5t-24 9.5t-24 -9.5t-10 -23.5t10 -24t24 -10t24 10t10 24z" />
    <glyph glyph-name="uniE616" unicode="&#xe616;" 
d="M603 261q65 27 105.5 86.5t40.5 132.5q0 98 -69.5 167.5t-167.5 69.5q-39 0 -75 -12t-65 -34t-51 -51t-34 -65t-12 -75q0 -73 40.5 -132.5t105.5 -86.5q-115 -31 -189.5 -126t-74.5 -218h41q0 64 24 123q24 56 67.5 99.5t100.5 67.5q8 4 16.5 7t17 5.5t17 4.5t17.5 3.5
t18 2.5t18 1.5t18 0.5q64 0 122 -25q28 -12 53.5 -29t46.5 -38q44 -44 68 -100q12 -29 18 -60t6 -63h41q0 123 -74.5 218t-189.5 126zM315 480q0 39 15 75t43 64q58 58 139 58q39 0 75 -15t64 -43q58 -57 58 -138.5t-58 -139.5q-18 -19 -40.5 -31.5t-47.5 -19.5t-51 -7
q-81 0 -139 58q-28 28 -43 64t-15 75z" />
    <glyph glyph-name="uniE617" unicode="&#xe617;" 
d="M513 689l105 -225l17 -35l38 -6l238 -37l-175 -179l-25 -26l5 -37l41 -251l-210 116l-35 20l-35 -19l-211 -116l42 251l6 36l-26 27l-175 180l239 36l39 6l16 35zM513 812q-7 0 -13.5 -2.5t-11.5 -7.5t-8 -11l-139 -295l-309 -46q-10 -2 -18 -8.5t-11 -16.5q-7 -21 8 -37
l225 -231l-54 -326q-1 -6 0.5 -13t5 -12.5t9.5 -9.5q9 -7 21 -7q9 0 18 4l276 152l275 -153q4 -2 8.5 -3t9.5 -1h1q10 0 18 5t13 13.5t5 18.5q0 6 -2 12l-51 319l224 230q16 16 9 37q-3 10 -11 16.5t-18 8.5l-309 47l-138 296q-4 10 -13 15.5t-20 5.5z" />
    <glyph glyph-name="uniE618" unicode="&#xe618;" 
d="M1022 423q-2 5 -4.5 9t-6.5 7.5t-8.5 5.5t-9.5 3l-309 47l-138 296q-4 10 -13 15.5t-20 5.5q-10 0 -19 -5.5t-14 -15.5l-139 -295l-309 -46q-22 -4 -29 -25t8 -37l225 -231l-54 -326q-2 -10 2 -19.5t13 -15.5q19 -14 39 -3l276 153l275 -153q9 -5 18 -5h1q10 0 18 5
t13 13.5t5 18.5q0 6 -2 12l-51 319l224 230q16 16 9 37z" />
    <glyph glyph-name="uniE619" unicode="&#xe619;" 
d="M511 285q-22 0 -38 -15.5t-16 -37.5q0 -24 18 -40v-49q0 -15 10.5 -25.5t25.5 -10.5t25 10.5t10 25.5v49q18 16 18 40q0 33 -30 48q-11 5 -23 5zM760 445h-35v89q0 44 -17 83.5t-46 68t-68.5 45.5t-82.5 17q-89 0 -151.5 -62.5t-62.5 -151.5v-89h-35q-37 0 -63 -26
t-26 -63v-338q0 -37 26 -63t63 -26h498q15 0 28.5 4.5t24.5 13t19 19t12.5 24.5t4.5 28v338q0 19 -7 35t-19 28t-28.5 19t-34.5 7zM511 712q29 0 56 -9t49 -25t38.5 -38t25.5 -49.5t9 -56.5v-89h-356v89q0 74 52 126t126 52zM814 18q0 -22 -16 -37.5t-38 -15.5h-498
q-22 0 -38 15.5t-16 37.5v338q0 11 4.5 21t11.5 17t17 11.5t21 4.5h498q11 0 21 -4.5t17 -11.5t11.5 -17t4.5 -21v-338zM814 18z" />
    <glyph glyph-name="uniE61A" unicode="&#xe61a;" 
d="M512 812q-139 0 -257 -68.5t-186.5 -186.5t-68.5 -257t68.5 -257t186.5 -186.5t257 -68.5t257 68.5t186.5 186.5t68.5 257t-68.5 257t-186.5 186.5t-257 68.5zM512 -144q-90 0 -172.5 35.5t-141.5 94.5t-94.5 141.5t-35.5 172.5t35.5 172.5t94.5 141.5t141.5 94.5
t172.5 35.5t172.5 -35.5t141.5 -94.5t94.5 -141.5t35.5 -172.5t-35.5 -172.5t-94.5 -141.5t-141.5 -94.5t-172.5 -35.5zM657 493l-145 -145l-145 145l-48 -48l145 -145l-145 -145l48 -48l145 145l145 -145l48 48l-145 145l145 145z" />
    <glyph glyph-name="uniE61B" unicode="&#xe61b;" horiz-adv-x="1031" 
d="M544 339q-17 0 -27.5 -10t-15.5 -23t-18.5 -26t-34.5 -18l-19 -6q-2 0 -5 -1q-22 -4 -28 -9t-6 -22q0 -32 26 -32h77v-211q0 -26 8 -38.5t30 -12.5t30.5 14t8.5 37v320q0 22 -7.5 30t-18.5 8zM294 550h13q15 0 23.5 9t8.5 23v154q0 10 -4 17t-11 11t-17 4h-13
q-14 0 -23 -9t-9 -23v-160q0 -10 9.5 -18t22.5 -8zM710 550h13q15 0 23.5 9t8.5 23v154q0 14 -8.5 23t-23.5 9h-13q-14 0 -23 -9t-9 -23v-160q0 -9 11 -17.5t21 -8.5zM890 691h-84v-57h84q18 0 34.5 -9.5t26 -26t9.5 -35.5v-64h-902v64q0 29 20.5 50t49.5 21h83v57h-77
q-56 0 -95 -40t-39 -94v-621q0 -26 10.5 -50.5t28 -43t42.5 -29.5t53 -11h762q54 0 94 38.5t40 95.5v621q-5 54 -44.5 94t-95.5 40zM890 -134h-756q-28 0 -49 20.5t-21 49.5v499h902v-493q0 -33 -21.5 -54.5t-54.5 -21.5zM384 691h256v-57h-256v57z" />
    <glyph glyph-name="uniE61C" unicode="&#xe61c;" 
d="M81 332l361 333l213 -204l199 228l-71 76h192v-192l-68 68l-252 -279l-213 211l-315 -294zM143 193h64v-324h-64v324zM399 377h64v-508h-64v508zM655 252h64v-383h-64v383zM911 444h64v-575h-64v575z" />
    <glyph glyph-name="uniE61E" unicode="&#xe61e;" 
d="M682 300q0 70 -49.5 120t-120 50t-120.5 -50t-50 -120q0 -47 23 -86t61 -61l15 41q-26 17 -41.5 45t-15.5 61q0 34 17.5 63.5t46.5 46.5t64 17q21 0 40.5 -6.5t35 -18t27.5 -27.5t18.5 -35.5t6.5 -39.5q0 -43 -25 -76.5t-64 -45.5l18 -39q50 18 81.5 62t31.5 99zM512 746
q-73 0 -141 -22.5t-123 -63.5t-96.5 -96t-64 -123.5t-22.5 -140.5q0 -136 74 -247t195 -163l14 40q-108 48 -174 148t-66 222q0 109 54 202.5t147 147.5t203 54t203 -54t147 -147.5t54 -202.5q0 -124 -68.5 -225.5t-178.5 -147.5l18 -39q122 52 197 163.5t75 248.5
q0 91 -35.5 173.5t-95.5 142.5t-142.5 95t-173.5 35zM512 321q-6 0 -11 -3t-7.5 -8t-2.5 -10.5t2.5 -10.5t7.5 -8t11 -3q4 0 8 2t7 4.5t4.5 6.5t1.5 9q0 8 -6 14.5t-15 6.5zM831 300q0 86 -42.5 159.5t-116 116.5t-160.5 43t-160.5 -43t-116 -116.5t-42.5 -159.5
q0 -95 50.5 -172.5t132.5 -116.5l15 40q-35 17 -63.5 42.5t-49 57.5t-32 70t-11.5 79q0 114 81 195t196 81q75 0 139 -37t101 -100.5t37 -138.5q0 -87 -48.5 -157t-126.5 -100l18 -39q89 36 144 116.5t55 179.5z" />
    <glyph glyph-name="uniE61F" unicode="&#xe61f;" 
d="M118 578l387 2l389 -4q20 0 33.5 -1.5t18.5 -4.5q12 -10 11.5 -26.5t-11.5 -27.5l-412 -451q-4 -4 -9 -6.5t-10 -3.5t-10 -1q-8 0 -15.5 2.5t-13.5 8.5l-412 451q-11 11 -11.5 27.5t11.5 26.5q11 8 54 8z" />
    <glyph glyph-name="uniE620" unicode="&#xe620;" 
d="M906 106l-387 -2l-389 4q-20 0 -33.5 1.5t-18.5 4.5q-12 10 -11.5 26.5t11.5 27.5l412 451q12 12 29 11q17 1 29 -11l412 -451q4 -4 6.5 -8.5t3.5 -9t1.5 -10t-1 -10t-4 -8.5t-6.5 -7.5t-10 -5t-17 -2.5t-27 -1z" />
    <glyph glyph-name="uniE621" unicode="&#xe621;" 
d="M202 582q2 4 2 7t-2 6q-19 33 -35 68q-2 3 -5 5t-6 2t-7 -2q-34 -20 -67 -43q-7 -5 -6 -13q0 -2 1 -3.5t3 -2.5l2 -2q2 -1 4 -1h1l1 -1h1h1h1l1 -1h1h1h1h1l1 -1h1h1h1l1 -1h1h1h1l1 -1h1h1h1h1l1 -1h1h1h1l1 -1h1h1h1l1 -1h1h1h1h1l1 -1h2q-57 -243 16 -482
q2 -7 9 -11.5t13.5 -2.5t9.5 9.5t1 14.5q-69 230 -15 464q21 -5 30 -7t13 3zM888 483q-19 20 -84.5 51t-101.5 45t-61 23q-8 3 -16 3q-17 0 -32 -11t-21 -27q-3 -9 -4 -22q-2 0 -5 1h-6q-3 1 -5 1q-20 0 -35.5 -11t-22.5 -29q-2 -7 -3 -14t-0.5 -13.5t3.5 -13.5
q-19 1 -34.5 -9t-21.5 -28q-9 -23 2 -45l-154 49q-7 3 -13 4t-13 1q-19 0 -34.5 -10.5t-22.5 -29.5q-9 -24 2.5 -47t38.5 -32l265 -90q3 -17 12 -38q4 -10 10.5 -19.5t16 -18.5t21 -17t25 -15t28 -12t31 -7.5t32.5 -2.5q24 0 47 5q53 13 91 35.5t65 57t45 83.5
q14 37 15.5 68t-8 56t-21.5 41.5t-31 37.5zM908 289q-24 -67 -66.5 -104.5t-115.5 -54.5q-20 -5 -41 -5q-24 0 -47.5 7t-42 17.5t-31.5 24t-19 27.5q-4 9 -6 18l86 -30q13 -4 17 9q1 2 0.5 4.5t-1.5 5t-3 4t-4 2.5l-381 129q-17 6 -24 19t-1.5 27.5t19 20t30.5 -0.5l233 -76
q12 -3 16.5 7.5t-5.5 16.5l-35 20l-2 1q-7 2 -12 6.5t-8 10.5q-6 12 -1 26q7 19 28 19h4q2 0 4 -0.5t3.5 -1t3.5 -1.5l25 -8v-1q5 -1 10 1t7 7q4 13 -8 17q-7 2 -12 7t-8 11q-6 13 -1 27q4 10 13 16.5t20 6.5q6 0 12 -2l53 -20q5 -2 10 0.5t7 7.5t-0.5 10t-7.5 7l-31 11
q-2 14 2 23q3 10 14 16.5t21 2.5q64 -23 140 -56.5t97 -55.5q14 -15 23 -26.5t17.5 -28t11 -33.5t0 -39.5t-12.5 -48.5z" />
    <glyph glyph-name="uniE622" unicode="&#xe622;" 
d="M206 196q-19 -4 -29 -7q-51 226 15 447q2 7 -1 14t-9 9t-13 -2t-9 -11q-68 -230 -15 -464q-7 -2 -21 -5t-15 -4q-3 0 -5 -1t-3.5 -3t-1.5 -4.5t0.5 -5t1.5 -4.5t4 -3q31 -23 63 -42q5 -2 10 -0.5t7 6.5q15 33 33 65q4 6 0 12q-4 5 -12 3zM868 479q-18 19 -79.5 49
t-96.5 43.5t-58 22.5q-2 0 -4 0.5t-3.5 1t-3.5 0.5h-4q-8 0 -16 -2.5t-14.5 -7.5t-12 -12t-7.5 -14q-1 -2 -1.5 -5t-1.5 -7.5t-1 -8.5l-15 2q-19 0 -34 -11t-21 -28q-7 -19 0 -39q-19 1 -33 -8.5t-20 -26.5q-8 -23 2 -44l-147 48q-11 4 -23 4q-13 0 -24 -4.5t-19 -13
t-12 -20.5q-8 -24 3 -46t36 -31l252 -86q1 -7 3.5 -16t6.5 -21q14 -34 58.5 -61t97.5 -27q23 0 45 5q74 18 119.5 58t70.5 111q13 35 14.5 65t-7.5 54t-20.5 40t-29.5 36zM888 292q-16 -43 -39 -73t-55.5 -49t-78.5 -30q-19 -5 -39 -5q-45 0 -83 22.5t-50 50.5q-3 9 -6 17
l82 -28q12 -4 16 8q2 5 -0.5 9.5t-7.5 6.5l-361 124q-15 5 -21.5 17.5t-2 26.5t17.5 19.5t29 -0.5l222 -73q10 -3 15 7q1 2 1 4t-0.5 3.5t-1 3.5t-2 3t-2.5 2l-33 19q-1 1 -2 1q-7 2 -12 6.5t-8 10.5q-5 11 -1 24q7 19 27 19q7 0 14 -3l24 -8q5 -2 9.5 0t6.5 7q4 12 -8 16
q-4 2 -7.5 4.5t-6.5 6t-4.5 7.5t-2.5 8.5t-0.5 8.5t1.5 8q4 10 12.5 16.5t19.5 6.5q5 0 11 -2l51 -19q4 -2 9 0.5t7 6.5q4 12 -8 17l-30 11q-1 12 2 21q2 7 8 12t12.5 7t12.5 0q35 -13 76 -30t88 -40.5t61 -37.5q17 -19 27 -33t17.5 -34.5t6 -45.5t-12.5 -57z" />
  </font>
</defs>
</svg>
